<mxfile host="65bd71144e">
    <diagram name="Page-1" id="7NfjMMq_gGa_mt1H01aH">
        <mxGraphModel dx="746" dy="563" grid="1" gridSize="10" guides="1" tooltips="1" connect="1" arrows="1" fold="1" page="1" pageScale="1" pageWidth="827" pageHeight="1169" math="0" shadow="0">
            <root>
                <mxCell id="0"/>
                <mxCell id="1" parent="0"/>
                <mxCell id="j5uJDolfGv999siIjo-Z-1" value="User" style="swimlane;horizontal=0;whiteSpace=wrap;html=1;" parent="1" vertex="1">
                    <mxGeometry x="40" y="40" width="800" height="200" as="geometry"/>
                </mxCell>
                <mxCell id="j5uJDolfGv999siIjo-Z-35" value="Acceptable&lt;div&gt;route?&lt;/div&gt;" style="text;html=1;align=center;verticalAlign=middle;resizable=0;points=[];autosize=1;strokeColor=none;fillColor=none;" parent="j5uJDolfGv999siIjo-Z-1" vertex="1">
                    <mxGeometry x="480" y="110" width="80" height="40" as="geometry"/>
                </mxCell>
                <mxCell id="j5uJDolfGv999siIjo-Z-2" value="System" style="swimlane;horizontal=0;whiteSpace=wrap;html=1;startSize=23;" parent="1" vertex="1">
                    <mxGeometry x="40" y="280" width="800" height="270" as="geometry">
                        <mxRectangle x="80" y="240" width="40" height="50" as="alternateBounds"/>
                    </mxGeometry>
                </mxCell>
                <mxCell id="j5uJDolfGv999siIjo-Z-13" value="Yes" style="text;html=1;align=center;verticalAlign=middle;resizable=0;points=[];autosize=1;strokeColor=none;fillColor=none;" parent="j5uJDolfGv999siIjo-Z-2" vertex="1">
                    <mxGeometry x="314" y="35" width="40" height="30" as="geometry"/>
                </mxCell>
                <mxCell id="j5uJDolfGv999siIjo-Z-14" value="No" style="text;html=1;align=center;verticalAlign=middle;resizable=0;points=[];autosize=1;strokeColor=none;fillColor=none;" parent="j5uJDolfGv999siIjo-Z-2" vertex="1">
                    <mxGeometry x="314" y="150" width="40" height="30" as="geometry"/>
                </mxCell>
                <mxCell id="j5uJDolfGv999siIjo-Z-62" value="" style="edgeStyle=orthogonalEdgeStyle;rounded=0;orthogonalLoop=1;jettySize=auto;html=1;" parent="j5uJDolfGv999siIjo-Z-2" source="j5uJDolfGv999siIjo-Z-16" target="j5uJDolfGv999siIjo-Z-28" edge="1">
                    <mxGeometry relative="1" as="geometry"/>
                </mxCell>
                <mxCell id="j5uJDolfGv999siIjo-Z-16" value="Calculate adjusted route" style="rounded=1;whiteSpace=wrap;html=1;fillColor=#dae8fc;strokeColor=#6c8ebf;" parent="j5uJDolfGv999siIjo-Z-2" vertex="1">
                    <mxGeometry x="400" y="30" width="120" height="60" as="geometry"/>
                </mxCell>
                <mxCell id="j5uJDolfGv999siIjo-Z-20" value="" style="edgeStyle=orthogonalEdgeStyle;rounded=0;orthogonalLoop=1;jettySize=auto;html=1;exitX=0.5;exitY=0;exitDx=0;exitDy=0;exitPerimeter=0;" parent="j5uJDolfGv999siIjo-Z-2" source="j5uJDolfGv999siIjo-Z-21" target="j5uJDolfGv999siIjo-Z-16" edge="1">
                    <mxGeometry relative="1" as="geometry"/>
                </mxCell>
                <mxCell id="j5uJDolfGv999siIjo-Z-61" style="edgeStyle=orthogonalEdgeStyle;rounded=0;orthogonalLoop=1;jettySize=auto;html=1;entryX=0;entryY=0.5;entryDx=0;entryDy=0;exitX=0.5;exitY=1;exitDx=0;exitDy=0;exitPerimeter=0;" parent="j5uJDolfGv999siIjo-Z-2" source="j5uJDolfGv999siIjo-Z-21" target="j5uJDolfGv999siIjo-Z-60" edge="1">
                    <mxGeometry relative="1" as="geometry"/>
                </mxCell>
                <mxCell id="j5uJDolfGv999siIjo-Z-21" value="" style="points=[[0.25,0.25,0],[0.5,0,0],[0.75,0.25,0],[1,0.5,0],[0.75,0.75,0],[0.5,1,0],[0.25,0.75,0],[0,0.5,0]];shape=mxgraph.bpmn.gateway2;html=1;verticalLabelPosition=bottom;labelBackgroundColor=#ffffff;verticalAlign=top;align=center;perimeter=rhombusPerimeter;outlineConnect=0;outline=none;symbol=none;gwType=exclusive;fillColor=#fff2cc;strokeColor=#d6b656;" parent="j5uJDolfGv999siIjo-Z-2" vertex="1">
                    <mxGeometry x="294" y="80" width="50" height="50" as="geometry"/>
                </mxCell>
                <mxCell id="j5uJDolfGv999siIjo-Z-28" value="Display updated&amp;nbsp;&lt;div&gt;route&lt;/div&gt;" style="rounded=1;whiteSpace=wrap;html=1;fillColor=#dae8fc;strokeColor=#6c8ebf;" parent="j5uJDolfGv999siIjo-Z-2" vertex="1">
                    <mxGeometry x="560" y="30" width="120" height="60" as="geometry"/>
                </mxCell>
                <mxCell id="j5uJDolfGv999siIjo-Z-30" value="addresses&lt;div&gt;available?&lt;/div&gt;" style="text;html=1;align=center;verticalAlign=middle;resizable=0;points=[];autosize=1;strokeColor=none;fillColor=none;" parent="j5uJDolfGv999siIjo-Z-2" vertex="1">
                    <mxGeometry x="333" y="80" width="80" height="40" as="geometry"/>
                </mxCell>
                <mxCell id="j5uJDolfGv999siIjo-Z-45" value="" style="points=[[0.145,0.145,0],[0.5,0,0],[0.855,0.145,0],[1,0.5,0],[0.855,0.855,0],[0.5,1,0],[0.145,0.855,0],[0,0.5,0]];shape=mxgraph.bpmn.event;html=1;verticalLabelPosition=bottom;labelBackgroundColor=#ffffff;verticalAlign=top;align=center;perimeter=ellipsePerimeter;outlineConnect=0;aspect=fixed;outline=catching;symbol=message;fillColor=#fff2cc;strokeColor=#d6b656;" parent="j5uJDolfGv999siIjo-Z-2" vertex="1">
                    <mxGeometry x="60" y="80" width="50" height="50" as="geometry"/>
                </mxCell>
                <mxCell id="j5uJDolfGv999siIjo-Z-48" value="Receive Users&lt;div&gt;List&lt;/div&gt;" style="text;html=1;align=center;verticalAlign=middle;resizable=0;points=[];autosize=1;strokeColor=none;fillColor=none;" parent="j5uJDolfGv999siIjo-Z-2" vertex="1">
                    <mxGeometry x="35" y="130" width="100" height="40" as="geometry"/>
                </mxCell>
                <mxCell id="j5uJDolfGv999siIjo-Z-54" value="" style="edgeStyle=orthogonalEdgeStyle;rounded=0;orthogonalLoop=1;jettySize=auto;html=1;entryX=0;entryY=0.5;entryDx=0;entryDy=0;entryPerimeter=0;" parent="j5uJDolfGv999siIjo-Z-2" source="j5uJDolfGv999siIjo-Z-49" target="j5uJDolfGv999siIjo-Z-21" edge="1">
                    <mxGeometry relative="1" as="geometry"/>
                </mxCell>
                <mxCell id="j5uJDolfGv999siIjo-Z-49" value="Query addresses in DB" style="points=[[0.25,0,0],[0.5,0,0],[0.75,0,0],[1,0.25,0],[1,0.5,0],[1,0.75,0],[0.75,1,0],[0.5,1,0],[0.25,1,0],[0,0.75,0],[0,0.5,0],[0,0.25,0]];shape=mxgraph.bpmn.task2;whiteSpace=wrap;rectStyle=rounded;size=10;html=1;container=1;expand=0;collapsible=0;taskMarker=service;fillColor=#dae8fc;strokeColor=#6c8ebf;" parent="j5uJDolfGv999siIjo-Z-2" vertex="1">
                    <mxGeometry x="140" y="75" width="120" height="60" as="geometry"/>
                </mxCell>
                <mxCell id="j5uJDolfGv999siIjo-Z-52" style="edgeStyle=orthogonalEdgeStyle;rounded=0;orthogonalLoop=1;jettySize=auto;html=1;entryX=0;entryY=0.5;entryDx=0;entryDy=0;entryPerimeter=0;" parent="j5uJDolfGv999siIjo-Z-2" source="j5uJDolfGv999siIjo-Z-45" target="j5uJDolfGv999siIjo-Z-49" edge="1">
                    <mxGeometry relative="1" as="geometry"/>
                </mxCell>
                <mxCell id="j5uJDolfGv999siIjo-Z-55" value="" style="shape=datastore;whiteSpace=wrap;html=1;fillColor=#eeeeee;strokeColor=#36393d;" parent="j5uJDolfGv999siIjo-Z-2" vertex="1">
                    <mxGeometry x="175" y="170" width="50" height="60" as="geometry"/>
                </mxCell>
                <mxCell id="j5uJDolfGv999siIjo-Z-56" value="" style="edgeStyle=orthogonalEdgeStyle;rounded=0;orthogonalLoop=1;jettySize=auto;html=1;entryX=0.5;entryY=1;entryDx=0;entryDy=0;entryPerimeter=0;exitX=0.5;exitY=0;exitDx=0;exitDy=0;dashed=1;endArrow=classic;startFill=0;startArrow=none;endFill=1;" parent="j5uJDolfGv999siIjo-Z-2" source="j5uJDolfGv999siIjo-Z-55" target="j5uJDolfGv999siIjo-Z-49" edge="1">
                    <mxGeometry relative="1" as="geometry">
                        <mxPoint x="175" y="193" as="sourcePoint"/>
                        <mxPoint x="150" y="135" as="targetPoint"/>
                    </mxGeometry>
                </mxCell>
                <mxCell id="j5uJDolfGv999siIjo-Z-64" value="" style="edgeStyle=orthogonalEdgeStyle;rounded=0;orthogonalLoop=1;jettySize=auto;html=1;" parent="j5uJDolfGv999siIjo-Z-2" source="j5uJDolfGv999siIjo-Z-60" target="j5uJDolfGv999siIjo-Z-40" edge="1">
                    <mxGeometry relative="1" as="geometry"/>
                </mxCell>
                <mxCell id="j5uJDolfGv999siIjo-Z-60" value="Error fetching addresses" style="rounded=1;whiteSpace=wrap;html=1;fillColor=#dae8fc;strokeColor=#6c8ebf;" parent="j5uJDolfGv999siIjo-Z-2" vertex="1">
                    <mxGeometry x="400" y="120" width="120" height="60" as="geometry"/>
                </mxCell>
                <mxCell id="j5uJDolfGv999siIjo-Z-40" value="End" style="points=[[0.145,0.145,0],[0.5,0,0],[0.855,0.145,0],[1,0.5,0],[0.855,0.855,0],[0.5,1,0],[0.145,0.855,0],[0,0.5,0]];shape=mxgraph.bpmn.event;html=1;verticalLabelPosition=bottom;labelBackgroundColor=#ffffff;verticalAlign=top;align=center;perimeter=ellipsePerimeter;outlineConnect=0;aspect=fixed;outline=end;symbol=terminate2;fillColor=#f8cecc;strokeColor=#b85450;" parent="j5uJDolfGv999siIjo-Z-2" vertex="1">
                    <mxGeometry x="560" y="125" width="50" height="50" as="geometry"/>
                </mxCell>
                <mxCell id="j5uJDolfGv999siIjo-Z-4" value="" style="edgeStyle=orthogonalEdgeStyle;rounded=0;orthogonalLoop=1;jettySize=auto;html=1;" parent="1" target="j5uJDolfGv999siIjo-Z-7" edge="1">
                    <mxGeometry relative="1" as="geometry">
                        <mxPoint x="150" y="130" as="sourcePoint"/>
                    </mxGeometry>
                </mxCell>
                <mxCell id="j5uJDolfGv999siIjo-Z-5" value="Start" style="ellipse;shape=doubleEllipse;html=1;dashed=0;whiteSpace=wrap;aspect=fixed;fillColor=#d5e8d4;strokeColor=#82b366;" parent="1" vertex="1">
                    <mxGeometry x="90" y="100" width="60" height="60" as="geometry"/>
                </mxCell>
                <mxCell id="j5uJDolfGv999siIjo-Z-31" value="" style="edgeStyle=orthogonalEdgeStyle;rounded=0;orthogonalLoop=1;jettySize=auto;html=1;" parent="1" source="j5uJDolfGv999siIjo-Z-7" target="j5uJDolfGv999siIjo-Z-12" edge="1">
                    <mxGeometry relative="1" as="geometry"/>
                </mxCell>
                <mxCell id="j5uJDolfGv999siIjo-Z-7" value="Insert destination&lt;div&gt;and time&lt;/div&gt;" style="rounded=1;whiteSpace=wrap;html=1;fillColor=#dae8fc;strokeColor=#6c8ebf;" parent="1" vertex="1">
                    <mxGeometry x="180" y="100" width="120" height="60" as="geometry"/>
                </mxCell>
                <mxCell id="j5uJDolfGv999siIjo-Z-12" value="Add Users to carpool" style="rounded=1;whiteSpace=wrap;html=1;fillColor=#dae8fc;strokeColor=#6c8ebf;" parent="1" vertex="1">
                    <mxGeometry x="344" y="100" width="120" height="60" as="geometry"/>
                </mxCell>
                <mxCell id="j5uJDolfGv999siIjo-Z-44" value="" style="edgeStyle=orthogonalEdgeStyle;rounded=0;orthogonalLoop=1;jettySize=auto;html=1;" parent="1" source="j5uJDolfGv999siIjo-Z-26" target="j5uJDolfGv999siIjo-Z-29" edge="1">
                    <mxGeometry relative="1" as="geometry"/>
                </mxCell>
                <mxCell id="j5uJDolfGv999siIjo-Z-26" value="Confirm route" style="rounded=1;whiteSpace=wrap;html=1;fillColor=#dae8fc;strokeColor=#6c8ebf;" parent="1" vertex="1">
                    <mxGeometry x="600" y="100" width="120" height="60" as="geometry"/>
                </mxCell>
                <mxCell id="j5uJDolfGv999siIjo-Z-29" value="End" style="points=[[0.145,0.145,0],[0.5,0,0],[0.855,0.145,0],[1,0.5,0],[0.855,0.855,0],[0.5,1,0],[0.145,0.855,0],[0,0.5,0]];shape=mxgraph.bpmn.event;html=1;verticalLabelPosition=bottom;labelBackgroundColor=#ffffff;verticalAlign=top;align=center;perimeter=ellipsePerimeter;outlineConnect=0;aspect=fixed;outline=end;symbol=terminate2;fillColor=#f8cecc;strokeColor=#b85450;" parent="1" vertex="1">
                    <mxGeometry x="760" y="105" width="50" height="50" as="geometry"/>
                </mxCell>
                <mxCell id="j5uJDolfGv999siIjo-Z-37" value="" style="edgeStyle=orthogonalEdgeStyle;rounded=0;orthogonalLoop=1;jettySize=auto;html=1;" parent="1" source="j5uJDolfGv999siIjo-Z-33" target="j5uJDolfGv999siIjo-Z-26" edge="1">
                    <mxGeometry relative="1" as="geometry"/>
                </mxCell>
                <mxCell id="j5uJDolfGv999siIjo-Z-42" style="edgeStyle=orthogonalEdgeStyle;rounded=0;orthogonalLoop=1;jettySize=auto;html=1;entryX=0.5;entryY=0;entryDx=0;entryDy=0;" parent="1" source="j5uJDolfGv999siIjo-Z-33" target="j5uJDolfGv999siIjo-Z-7" edge="1">
                    <mxGeometry relative="1" as="geometry">
                        <mxPoint x="480" y="40" as="targetPoint"/>
                        <Array as="points">
                            <mxPoint x="525" y="70"/>
                            <mxPoint x="240" y="70"/>
                        </Array>
                    </mxGeometry>
                </mxCell>
                <mxCell id="j5uJDolfGv999siIjo-Z-33" value="" style="points=[[0.25,0.25,0],[0.5,0,0],[0.75,0.25,0],[1,0.5,0],[0.75,0.75,0],[0.5,1,0],[0.25,0.75,0],[0,0.5,0]];shape=mxgraph.bpmn.gateway2;html=1;verticalLabelPosition=bottom;labelBackgroundColor=#ffffff;verticalAlign=top;align=center;perimeter=rhombusPerimeter;outlineConnect=0;outline=none;symbol=none;gwType=exclusive;fillColor=#fff2cc;strokeColor=#d6b656;" parent="1" vertex="1">
                    <mxGeometry x="500" y="105" width="50" height="50" as="geometry"/>
                </mxCell>
                <mxCell id="j5uJDolfGv999siIjo-Z-41" value="Yes" style="text;html=1;align=center;verticalAlign=middle;resizable=0;points=[];autosize=1;strokeColor=none;fillColor=none;" parent="1" vertex="1">
                    <mxGeometry x="545" y="105" width="40" height="30" as="geometry"/>
                </mxCell>
                <mxCell id="j5uJDolfGv999siIjo-Z-43" value="No" style="text;html=1;align=center;verticalAlign=middle;resizable=0;points=[];autosize=1;strokeColor=none;fillColor=none;" parent="1" vertex="1">
                    <mxGeometry x="520" y="75" width="40" height="30" as="geometry"/>
                </mxCell>
                <mxCell id="j5uJDolfGv999siIjo-Z-66" style="edgeStyle=orthogonalEdgeStyle;rounded=0;orthogonalLoop=1;jettySize=auto;html=1;entryX=0.5;entryY=0;entryDx=0;entryDy=0;entryPerimeter=0;exitX=0.5;exitY=1;exitDx=0;exitDy=0;dashed=1;startArrow=oval;startFill=0;" parent="1" source="j5uJDolfGv999siIjo-Z-12" target="j5uJDolfGv999siIjo-Z-45" edge="1">
                    <mxGeometry relative="1" as="geometry">
                        <Array as="points">
                            <mxPoint x="404" y="260"/>
                            <mxPoint x="125" y="260"/>
                        </Array>
                    </mxGeometry>
                </mxCell>
                <mxCell id="j5uJDolfGv999siIjo-Z-63" style="edgeStyle=orthogonalEdgeStyle;rounded=0;orthogonalLoop=1;jettySize=auto;html=1;exitX=1;exitY=0.5;exitDx=0;exitDy=0;dashed=1;startArrow=oval;startFill=0;" parent="1" source="j5uJDolfGv999siIjo-Z-28" target="j5uJDolfGv999siIjo-Z-33" edge="1">
                    <mxGeometry relative="1" as="geometry">
                        <Array as="points">
                            <mxPoint x="740" y="340"/>
                            <mxPoint x="740" y="260"/>
                            <mxPoint x="525" y="260"/>
                        </Array>
                    </mxGeometry>
                </mxCell>
            </root>
        </mxGraphModel>
    </diagram>
</mxfile>